<svg xmlns="http://www.w3.org/2000/svg" viewBox="0 0 64 64" fill="none">
  <defs>
    <linearGradient id="metalFav1" x1="0%" y1="0%" x2="100%" y2="100%">
      <stop offset="0%" stop-color="#e8e8ee"/>
      <stop offset="30%" stop-color="#c0c0cc"/>
      <stop offset="60%" stop-color="#a0a0b0"/>
      <stop offset="100%" stop-color="#707088"/>
    </linearGradient>
    <linearGradient id="metalFav2" x1="0%" y1="0%" x2="100%" y2="100%">
      <stop offset="0%" stop-color="#d0d0dd"/>
      <stop offset="50%" stop-color="#b0b0c0"/>
      <stop offset="100%" stop-color="#808098"/>
    </linearGradient>
    <linearGradient id="metalFav3" x1="100%" y1="0%" x2="0%" y2="100%">
      <stop offset="0%" stop-color="#e0e0ea"/>
      <stop offset="40%" stop-color="#c8c8d6"/>
      <stop offset="100%" stop-color="#909098"/>
    </linearGradient>
    <linearGradient id="blueFav" x1="0%" y1="0%" x2="0%" y2="100%">
      <stop offset="0%" stop-color="#4488ff" stop-opacity="0"/>
      <stop offset="50%" stop-color="#66aaff" stop-opacity="1"/>
      <stop offset="100%" stop-color="#4488ff" stop-opacity="0"/>
    </linearGradient>
  </defs>
  <rect width="64" height="64" rx="14" fill="#0a0a12"/>
  <g transform="translate(10, 8) scale(0.42)">
    <path d="M20 15 Q20 8 28 8 L110 8 Q118 8 118 15 L118 35 Q118 42 110 42 L48 42 Q45 42 45 45 L45 50 Q45 53 42 53 L28 53 Q20 53 20 46 Z" fill="url(#metalFav1)"/>
    <line x1="45" y1="42" x2="45" y2="53" stroke="url(#blueFav)" stroke-width="2.5" opacity="0.9"/>
    <path d="M20 72 Q20 65 28 65 L95 65 Q102 65 102 72 L102 92 Q102 99 95 99 L28 99 Q20 99 20 92 Z" fill="url(#metalFav2)"/>
    <path d="M20 112 Q20 105 28 105 L110 105 Q118 105 118 112 L118 132 Q118 139 110 139 L28 139 Q20 139 20 132 L20 120 Q20 117 23 117 L42 117 Q45 117 45 114 L45 112 Q45 105 48 105" fill="url(#metalFav3)"/>
    <line x1="45" y1="105" x2="45" y2="117" stroke="url(#blueFav)" stroke-width="2.5" opacity="0.9"/>
    <path d="M20 15 Q20 8 28 8 L28 8 L28 139 Q20 139 20 132 L20 15 Z" fill="url(#metalFav1)" opacity="0.95"/>
  </g>
  <circle cx="50" cy="16" r="3" fill="#66aaff" opacity="0.8"/>
  <circle cx="50" cy="16" r="5" fill="#66aaff" opacity="0.15"/>
</svg>
